<?xml version="1.0" encoding="UTF-8" standalone="no"?>
<svg
   xmlns:dc="http://purl.org/dc/elements/1.1/"
   xmlns:cc="http://creativecommons.org/ns#"
   xmlns:rdf="http://www.w3.org/1999/02/22-rdf-syntax-ns#"
   xmlns:svg="http://www.w3.org/2000/svg"
   xmlns="http://www.w3.org/2000/svg"
   viewBox="0 0 89.824997 89.824997"
   height="89.824997"
   width="89.824997"
   xml:space="preserve"
   version="1.1"
   id="svg2">
   <defs>
      <style type="text/css">
        @import url("http://fonts.googleapis.com/css?family=Source+Serif+Pro:400");
      </style>
   </defs>
   <metadata
     id="metadata8"><rdf:RDF><cc:Work
         rdf:about=""><dc:format>image/svg+xml</dc:format><dc:type
           rdf:resource="http://purl.org/dc/dcmitype/StillImage" /></cc:Work></rdf:RDF></metadata><defs
     id="defs6" /><g
     transform="matrix(1.25,0,0,-1.25,0,89.825)"
     id="g10"><g
       transform="translate(72,-0.14)"
       id="g12"><g
         transform="translate(-121.11,7.72)"
         id="g14"><g
           id="g16"><g
             id="g18"><g
               id="g20"><path
                 id="path22"
                 style="fill:none;stroke:#000000;stroke-width:0.99628001;stroke-linecap:butt;stroke-linejoin:miter;stroke-miterlimit:10;stroke-dasharray:none;stroke-opacity:1"
                 d="m 92.1271,0 c 0,3.91391 -3.17275,7.08669 -7.08668,7.08669 -3.91391,0 -7.08668,-3.17278 -7.08668,-7.08669 0,-3.91391 3.17277,-7.08669 7.08668,-7.08669 3.91393,0 7.08668,3.17278 7.08668,7.08669 z" /><g
                 id="g24"><g
                   transform="scale(-1,-1)"
                   id="g26"><g
                     id="g28" /><g
                     transform="matrix(-1,0,0,-1,-121.11,7.72)"
                     id="g30"><g
                       id="g32" /><g
                       transform="translate(82.73,-2.33)"
                       id="g34"><text
                         id="text36"
                         style="font-variant:normal;font-size:6.97399998px;font-family:Source Serif Pro;-inkscape-font-specification:Source Serif Pro-H;writing-mode:lr-tb;fill:#000000;fill-opacity:1;fill-rule:nonzero;stroke:none"
                         transform="matrix(1,0,0,-1,-121.11,7.72)"><tspan
                           id="tspan38"
                           y="0"
                           x="0">A</tspan></text>
</g><g
                       transform="translate(-121.11,7.72)"
                       id="g40" /></g></g></g></g><g
               id="g42"><path
                 id="path44"
                 style="fill:none;stroke:#000000;stroke-width:0.99628001;stroke-linecap:butt;stroke-linejoin:miter;stroke-miterlimit:10;stroke-dasharray:none;stroke-opacity:1"
                 d="m 63.7803,28.3468 c 0,3.91391 -3.17277,7.08669 -7.08668,7.08669 -3.91392,0 -7.0867,-3.17278 -7.0867,-7.08669 0,-3.91391 3.17278,-7.08668 7.0867,-7.08668 3.91391,0 7.08668,3.17277 7.08668,7.08668 z" /><g
                 id="g46"><g
                   transform="scale(-1,-1)"
                   id="g48"><g
                     id="g50" /><g
                     transform="matrix(-1,0,0,-1,-121.11,7.72)"
                     id="g52"><g
                       id="g54" /><g
                       transform="translate(54.5,26.01)"
                       id="g56"><text
                         id="text58"
                         style="font-variant:normal;font-size:6.97399998px;font-family:Source Serif Pro;-inkscape-font-specification:Source Serif Pro-H;writing-mode:lr-tb;fill:#000000;fill-opacity:1;fill-rule:nonzero;stroke:none"
                         transform="matrix(1,0,0,-1,-121.11,7.72)"><tspan
                           id="tspan60"
                           y="0"
                           x="0">B</tspan></text>
</g><g
                       transform="translate(-121.11,7.72)"
                       id="g62" /></g></g></g></g><g
               id="g64"><path
                 id="path66"
                 style="fill:none;stroke:#000000;stroke-width:0.99628001;stroke-linecap:butt;stroke-linejoin:miter;stroke-miterlimit:10;stroke-dasharray:none;stroke-opacity:1"
                 d="m 120.47392,28.3468 c 0,3.91391 -3.17277,7.08669 -7.08668,7.08669 -3.91393,0 -7.0867,-3.17278 -7.0867,-7.08669 0,-3.91391 3.17277,-7.08668 7.0867,-7.08668 3.91391,0 7.08668,3.17277 7.08668,7.08668 z" /><g
                 id="g68"><g
                   transform="scale(-1,-1)"
                   id="g70"><g
                     id="g72" /><g
                     transform="matrix(-1,0,0,-1,-121.11,7.72)"
                     id="g74"><g
                       id="g76" /><g
                       transform="translate(111.19,26.01)"
                       id="g78"><text
                         id="text80"
                         style="font-variant:normal;font-size:6.97399998px;font-family:Source Serif Pro;-inkscape-font-specification:Source Serif Pro-H;writing-mode:lr-tb;fill:#000000;fill-opacity:1;fill-rule:nonzero;stroke:none"
                         transform="matrix(1,0,0,-1,-121.11,7.72)"><tspan
                           id="tspan82"
                           y="0"
                           x="0">C</tspan></text>
</g><g
                       transform="translate(-121.11,7.72)"
                       id="g84" /></g></g></g></g><g
               id="g86"><path
                 id="path88"
                 style="fill:none;stroke:#000000;stroke-width:0.99628001;stroke-linecap:butt;stroke-linejoin:miter;stroke-miterlimit:10;stroke-dasharray:none;stroke-opacity:1"
                 d="m 92.1271,56.69362 c 0,3.91391 -3.17275,7.08668 -7.08668,7.08668 -3.91391,0 -7.08668,-3.17277 -7.08668,-7.08668 0,-3.91392 3.17277,-7.0867 7.08668,-7.0867 3.91393,0 7.08668,3.17278 7.08668,7.0867 z" /><g
                 id="g90"><g
                   transform="scale(-1,-1)"
                   id="g92"><g
                     id="g94" /><g
                     transform="matrix(-1,0,0,-1,-121.11,7.72)"
                     id="g96"><g
                       id="g98" /><g
                       transform="translate(82.56,54.36)"
                       id="g100"><text
                         id="text102"
                         style="font-variant:normal;font-size:6.97399998px;font-family:Source Serif Pro;-inkscape-font-specification:Source Serif Pro-H;writing-mode:lr-tb;fill:#000000;fill-opacity:1;fill-rule:nonzero;stroke:none"
                         transform="matrix(1,0,0,-1,-121.11,7.72)"><tspan
                           id="tspan104"
                           y="0"
                           x="0">D</tspan></text>
</g><g
                       transform="translate(-121.11,7.72)"
                       id="g106" /></g></g></g></g><path
               id="path108"
               style="fill:none;stroke:#000000;stroke-width:0.99628001;stroke-linecap:butt;stroke-linejoin:miter;stroke-miterlimit:10;stroke-dasharray:none;stroke-opacity:1"
               d="m 79.67691,5.36328 -17.03166,17.032" /><g
               transform="matrix(-0.70712,0.7071,-0.7071,-0.70712,62.64526,22.39528)"
               id="g110"><g
                 id="g112"><path
                   id="path114"
                   style="fill:none;stroke:#000000;stroke-width:0.79701;stroke-linecap:round;stroke-linejoin:round;stroke-miterlimit:10;stroke-dasharray:none;stroke-opacity:1"
                   d="M -1.73352,2.31136 C -1.58905,1.4446 0,0.14444 0.43336,0 0,-0.14444 -1.58905,-1.4446 -1.73352,-2.31136" /></g></g><path
               id="path116"
               style="fill:none;stroke:#000000;stroke-width:0.99628001;stroke-linecap:butt;stroke-linejoin:miter;stroke-miterlimit:10;stroke-dasharray:none;stroke-opacity:1"
               d="m 90.40395,5.36328 17.03165,17.032" /><g
               transform="matrix(0.70712,0.7071,-0.7071,0.70712,107.43558,22.39528)"
               id="g118"><g
                 id="g120"><path
                   id="path122"
                   style="fill:none;stroke:#000000;stroke-width:0.79701;stroke-linecap:round;stroke-linejoin:round;stroke-miterlimit:10;stroke-dasharray:none;stroke-opacity:1"
                   d="M -1.73352,2.31136 C -1.58905,1.4446 0,0.14444 0.43336,0 0,-0.14444 -1.58905,-1.4446 -1.73352,-2.31136" /></g></g><path
               id="path124"
               style="fill:none;stroke:#000000;stroke-width:0.99628001;stroke-linecap:butt;stroke-linejoin:miter;stroke-miterlimit:10;stroke-dasharray:none;stroke-opacity:1"
               d="m 108.02371,33.71008 -17.03166,17.032" /><g
               transform="matrix(-0.70712,0.7071,-0.7071,-0.70712,90.99207,50.74208)"
               id="g126"><g
                 id="g128"><path
                   id="path130"
                   style="fill:none;stroke:#000000;stroke-width:0.79701;stroke-linecap:round;stroke-linejoin:round;stroke-miterlimit:10;stroke-dasharray:none;stroke-opacity:1"
                   d="M -1.73352,2.31136 C -1.58905,1.4446 0,0.14444 0.43336,0 0,-0.14444 -1.58905,-1.4446 -1.73352,-2.31136" /></g></g><path
               id="path132"
               style="fill:none;stroke:#000000;stroke-width:0.99628001;stroke-linecap:butt;stroke-linejoin:miter;stroke-miterlimit:10;stroke-dasharray:none;stroke-opacity:1"
               d="m 62.05713,33.71008 17.03166,17.032" /><g
               transform="matrix(0.70712,0.7071,-0.7071,0.70712,79.08878,50.74208)"
               id="g134"><g
                 id="g136"><path
                   id="path138"
                   style="fill:none;stroke:#000000;stroke-width:0.79701;stroke-linecap:round;stroke-linejoin:round;stroke-miterlimit:10;stroke-dasharray:none;stroke-opacity:1"
                   d="M -1.73352,2.31136 C -1.58905,1.4446 0,0.14444 0.43336,0 0,-0.14444 -1.58905,-1.4446 -1.73352,-2.31136" /></g></g></g></g></g></g></g></svg>